<?xml version="1.0" encoding="utf-8"?>
<!-- Generator: Adobe Illustrator 18.1.1, SVG Export Plug-In . SVG Version: 6.00 Build 0)  -->
<svg version="1.1" id="Layer_1" xmlns="http://www.w3.org/2000/svg" xmlns:xlink="http://www.w3.org/1999/xlink" x="0px" y="0px"
	 viewBox="0 152.1 612 383.7" enable-background="new 0 152.1 612 383.7" xml:space="preserve">
<path fill="#B2FFFF" d="M0.3,152.1h206.1c-16.5,6.3-37.1-0.3-51.6,12.2c-30.4,23.2-67.8,41-86,76.4c-9.3,13.2-12.6,29.1-14.9,44.7
	c-3.6,24.5-14.6,46.6-18.2,71.1c-4.6,13.9-13.9,26.1-14.9,41.4c-1.3,20.2-12.6,38.4-13.9,58.9c-0.3,12.6-3,24.5-6.9,36.4V152.1H0.3z
	"/>
<path d="M206.4,152.1h173.3c4.6,15.5,10.9,30.1,20.5,43.3c9.3,19.8,28.4,33.7,33.7,55.6c2.3,9.3,8.9,18.9,4.3,28.4
	c-1,7.9-7.9,12.6-13.6,17.2c-15.2,3.3-30.4,5.6-45.3,10.6c-18.2,1.7-36.7,0.3-54.9,0.7c-6.9,8.9-10.9,19.8-19.2,27.5
	c-5.6,6-13.2,9.6-16.9,16.9c-1,5.6-0.7,11.6-1,17.5c-11.9,7.9-27.1,9.6-38,19.2c-10.9,17.9-16.9,39-32.1,53.9
	c-17.9,11.6-35.7,24.5-57.2,28.4c-13.2,1.7-23.2,11.2-36.4,13.2c-17.9,2.6-26.5,20.8-42.3,27.5c-7.6,4.6-19.8,6.3-20.2,17.2
	c-19.8,4.6-42,6.3-61.5-0.3v-8.6c23.8-3.6,49.3-2,70.8-14.6c-11.2-5.3-21.8-14.2-34.4-15.9c-12.9,1.7-25.1,6.9-36.4,13.2v-9.9
	C3.3,481.3,6,469,6.6,456.8c1.3-20.5,12.6-38.7,13.9-58.9c1-15.2,10.3-27.5,14.9-41.4c3.3-24.5,14.6-46.6,18.2-71.1
	c2.6-15.5,6-31.4,14.9-44.7c18.2-35.4,55.6-53.3,86-76.4C169.4,151.8,189.9,158.4,206.4,152.1z"/>
<path fill="#B2FFFF" d="M379.8,152.1h232.6v383.7H0.3v-7.3c19.5,6.6,41.7,5,61.5,0.3c0.3-11.2,12.6-12.6,20.2-17.2
	c15.9-6.6,24.5-24.8,42.3-27.5c12.9-2,23.2-11.6,36.4-13.2c21.5-4,39.4-17.2,57.2-28.4c15.2-14.9,21.2-36.1,32.1-53.9
	c11.2-9.3,26.1-10.9,38-19.2c0-6,0-11.6,1-17.5c3.6-7.6,11.2-11.2,16.9-16.9c8.6-7.6,12.6-18.5,19.2-27.5c18.2-0.3,36.7,1,54.9-0.7
	c14.6-5,30.1-7.3,45.3-10.6c5.6-4.6,12.6-9.3,13.6-17.2c4.3-9.6-2-19.2-4.3-28.4c-5.3-21.8-24.5-35.7-33.7-55.6
	C390.7,182.2,384.4,167.7,379.8,152.1z"/>
<path fill="#CA0101" d="M189.9,173c6.6-4.3,14.6-4,22.2-4.6c0,7.6,0,15.2,0,23.2c-9.6-5.3-20.5-7.6-31.1-3.6
	C183.6,182.6,185.9,176.9,189.9,173z"/>
<path fill="#0E33F0" d="M212,168.3c2.6,0,7.6,0,9.9,0c0,7.6,0,15.2,0,23.2c9.9-5.6,21.8-8.9,32.4-2.3c1.7,2.3,3.6,5,5.3,7.6
	c-10.6,6.6-22.5,9.9-35.1,8.9c3,2.3,6,4.3,8.9,6.6c-2.6,4.6-5.6,8.9-8.6,13.6c13.6,3.3,13.9,18.2,17.2,29.4l0.7,2.6
	c-16.5,4.6-35.7,12.9-51.9,2c3.6-12.2,3-29.8,18.2-33.7c-3-4.6-6-8.9-8.6-13.6c3-2.3,6-4.3,9.3-6.6c-10.9,0.3-21.8,0-30.4-7.6
	c-0.3-2.3-0.7-7.3-0.7-9.9l2.6-0.7c10.6-4,21.5-1.7,31.1,3.6C212,183.6,212,175.9,212,168.3z"/>
<path fill="#CA0101" d="M222,168.3c12.2-0.7,23.2,4.6,33.4,10.6c-0.3,2.6-0.7,7.6-1,9.9c-10.6-6.6-22.5-3.3-32.4,2.3
	C222,183.6,222,175.9,222,168.3z"/>
<path fill="#814747" d="M333.1,184.5c6.3-6.3,13.6-11.9,20.8-16.9c16.9,13.2,35.1,25.8,46.3,44.3c7.6,11.2,16.2,21.8,24.1,33.1
	c-15.9,8.9-33.7,4.6-50.6,2.3c-4.3-17.9-2-36.7-9.3-53.6C353,196.8,342.1,191.8,333.1,184.5z"/>
<path d="M189.2,187.5c7.9,2.3,15.2,6,23.5,7.6c11.6,2,21.8-4.6,32.4-7.6c0,5,0.3,9.9,0.3,14.6c-18.5-4.3-37.7-4.6-56.2,0
	C188.9,197.1,189.2,192.5,189.2,187.5z"/>
<path fill="#CA0101" d="M179.3,197.8c8.6,7.3,19.5,7.6,30.4,7.6c-3,2.3-6,4.3-9.3,6.6c3,4.6,5.6,8.9,8.6,13.6
	c-15.2,4-14.6,21.5-18.2,33.7c-8.6-5-16.9-13.2-14.6-24.1C178.3,222.9,179.3,210.4,179.3,197.8z"/>
<path fill="#CA0101" d="M224.3,205.4c12.6,1,24.5-2.3,35.1-8.9c-0.7,19.2-6.3,37.7-9.6,56.6c-2,0.3-6,1.3-7.9,1.7
	c-3-11.2-3.6-26.1-17.2-29.4c3-4.6,6-8.9,8.6-13.6C230.6,209.7,227.6,207.7,224.3,205.4z"/>
<path d="M210.4,218c2.3-5,4.6-9.9,7.3-14.9c2,5,4,9.9,6,15.2C220,218,213.7,218,210.4,218z"/>
<path d="M205.1,241.8c3.6-2.6,6.9-5.3,10.6-7.3c5.3,0,8.6,5,12.9,7.3c0,4.3-0.3,8.6,0,12.9c-7.6,3-15.5,3.3-23.2,0
	C205.4,250.4,205.4,246.1,205.1,241.8z"/>
<path fill="#814747" d="M100.6,252.4c8.6-8.3,21.5-14.2,33.1-8.6c11.2,5.3,22.5-4.3,33.7-1.7c9.3,9.9,17.2,23.2,31.8,25.5
	c20.8,2.6,44.3-2.3,58.9-18.5c14.6,7.9,30.4,0.7,46,2.6c5.6,0.7,11.2,2,16.9,3c-5,4.3-9.6,8.9-14.2,13.9c11.2-5,21.8-11.9,34.4-13.2
	c11.6-1.3,23.2-2.6,34.7-4c1.7,16.2,8.3,31.4,15.2,46c-22.8,6.3-46.6,5.3-69.1-1.3c-8.3,17.2-19.8,32.4-34.1,45.3
	c-4-3.6-7.9-6.9-11.9-10.6c5.3-15.5,9.3-31.8,15.5-47c-13.9,14.9-13.2,36.7-23.5,53.9c-24.1-3.6-48.3-5-72.1-10.3
	c12.6-9.3,12.9-26.5,12.6-41c-4,13.2-6.3,27.8-16.9,37.7c-15.9-4.3-32.1-7.3-48.6-6.6c4.6-13.2,8.6-27.5,5-41.4
	c-2.6-2.6-5-5-7.6-7.3c2.3,8.3,6.9,16.2,5.3,25.1c-2,9.3-6.3,17.9-9.6,26.8c21.5-1,43,3,63.2,10.6c-4.3,8.3-8.6,16.5-11.9,25.5
	c-16.9-3.3-34.4-2-50.9-6.9c-12.6-4-25.8-6.6-38-11.6c-3-17.2-6.6-35.1-2-52.3C98.6,274.9,93.3,262.3,100.6,252.4z"/>
<path fill="#0E33F0" d="M379.8,251c13.2,3.3,27.5,5.3,40.7,0.3c5.3,7.6,12.2,15.9,9.9,25.8c-3,15.5-22.2,15.9-34.7,17.9
	C389.7,280.8,383.1,266.3,379.8,251z"/>
<path d="M154.8,267.9c3.3-5,6.6-9.9,10.3-14.6c0.3,5,0.7,9.9,0.7,14.6C163.1,267.9,157.8,267.9,154.8,267.9z"/>
<path fill="#0E33F0" d="M203.8,333.7c8.6,0.3,17.2,1.7,25.5,4c-5.3,6-10.6,12.2-15.2,18.5c-5,9.3-15.9,1.7-22.8,0.3
	C194.8,348.6,199.5,341.4,203.8,333.7z"/>
<path fill="#814747" d="M214.4,363.8c6.9-9.6,13.2-21.5,24.8-26.1c13.6,1.3,27.1,3.3,40.4-0.7c-1,9.6,1,19.2,1.7,28.8
	C259,369.1,236.2,368.5,214.4,363.8z"/>
<path fill="#814747" d="M121.1,350c8.6,1.7,17.5,3.3,25.8,6.6c-3.6,6-8.3,11.6-12.6,17.2c6.3-2,12.9-8.6,19.8-5.3
	c5.6,2,10.9,4.6,16.2,6.9c-4.6,5.3-8.3,12.9-15.2,14.9c-9.3-1.3-17.9-5-26.8-6.9c7.9,6.3,16.2,14.2,26.8,14.2
	c14.2-9.9,24.8-24.1,37.4-35.7c9.3,2,18.9,4.3,28.1,6.9c-6.3,6.9-13.2,12.9-19.8,19.5c10.6-2,17.9-9.9,25.8-16.5
	c10.9-1.7,22.2-0.7,33.1-0.3c-7.6,5-15.9,8.6-23.2,14.2c-3.6,6.3-4.6,13.6-6.6,20.2c-20.8,3.3-42,11.2-63.2,7.6
	c-22.5-6.9-46.6-15.5-59.5-36.7C113.1,368.1,117.4,359.2,121.1,350z"/>
<path fill="#814747" d="M147.5,357.6c11.6-1,23.5-0.3,35.1,2.6c-2.6,4.3-5.3,8.6-7.9,13.2C165.1,368.8,155.8,363.8,147.5,357.6z"/>
<path d="M181.9,375.1c13.2,1.3,16.9,13.6,18.2,24.8c-14.2,3.6-29.8,6.9-43.7,0c13.6-4.6,29.1,5,40.4-6.6
	C191.9,387,186.9,381.1,181.9,375.1z"/>
<path fill="#0E33F0" d="M91,386c4-2,8.6-8.6,13.6-5c19.8,25.1,52.9,38.4,84.7,35.7c12.9,0.7,24.8-5,37.4-7.6
	c-3,8.6-6.9,16.5-11.9,24.1c-25.1,0-50.3,0.3-75.4,0c-7.9,0.3-15.2-3.6-21.8-7.9c-4.3-7.3-4-16.5-10.3-22.8
	C101.9,396.9,96.3,391.6,91,386z"/>
<path d="M334.4,380.4c40.7,0,81.7,0,122.4,0c0,24.1,0,48.6,0,72.8c-1.7,17.9-8.3,35.1-10.6,52.9c-40.7,0-81.4,0-122.1,0
	c0-17.2,7.6-33.1,10.3-50C334.8,431,334.1,405.5,334.4,380.4z"/>
<path fill="#5E5A5A" d="M337.8,383.7c38.7,0,77.1,0,115.8,0c0,21.8,0,44,0,66.2c-38.4,0-77.1,0-115.8,0
	C337.8,427.7,337.8,405.9,337.8,383.7z"/>
<path fill="#814747" d="M54.3,411.5c10.3-8.9,21.5-16.2,32.1-24.8c5.6,6.6,11.6,12.9,17.2,19.5c5.3,6.3,6.6,15.2,11.2,21.8
	c3.6,3.3,7.9,5.6,11.9,8.6c-26.1-1.7-55.6,6.3-71.1,28.8c-4.6-7.3-11.6-12.6-18.9-17.2C41.4,435.6,45,421.7,54.3,411.5z"/>
<path d="M344.4,390.3c34.1,0,68.1,0,102.6,0c0.3,17.5,0.3,35.1,0,52.9c-34.1,0-68.1,0-102.6,0C344.4,425.7,344.4,407.8,344.4,390.3z
	"/>
<path fill="#D9D4D2" d="M347.7,393.6c32.1,0,63.8,0,95.9,0c0,15.5,0,30.8,0,46.3c-32.1,0-63.8,0-95.9,0
	C347.7,424.4,347.7,409.2,347.7,393.6z"/>
<path d="M354.3,396.9c8.9,0,17.5,0,26.5,0c0,9.6,0,19.2,0,28.4c-4.3,4-8.9,8.3-13.2,12.6c-4.3-4.3-8.9-8.3-13.2-12.6
	C354.3,416.1,354.3,406.5,354.3,396.9z"/>
<path d="M384.1,396.9c8.9,0,17.5,0,26.5,0c0,9.6,0,19.2,0,28.4c-4.3,4-8.9,8.3-13.2,12.6c-4.3-4.3-8.9-8.3-13.2-12.6
	C384.1,416.1,384.1,406.5,384.1,396.9z"/>
<path d="M413.8,396.9c8.9,0,17.5,0,26.5,0c0,9.6,0,19.2,0,28.4c-4.3,4-8.9,8.3-13.2,12.6c-4.3-4.3-8.9-8.3-13.2-12.6
	C413.8,416.1,413.8,406.5,413.8,396.9z"/>
<path fill="#F2A80F" d="M357.9,400.6c6.3,0,12.9,0,19.2,0c0,7.3,0,14.6,0,21.8c-3.3,3-6.3,5.6-9.6,8.6c-3-3-6.3-6-9.6-8.6
	C357.9,415.1,357.9,407.8,357.9,400.6z"/>
<path fill="#0E33F0" d="M387,400.2c6.6,0,13.6,0,20.2,0c0.7,11.9,1,24.5-10.3,31.8C386.4,424.7,386.7,412.1,387,400.2z"/>
<path fill="#FFFFFF" d="M360.9,403.5c5,0,9.9,0,14.9,0c-4.3,1.7-8.6,3.3-12.9,5.3c3.6,1,7.6,1.7,11.2,2.6c0,2,0,6,0,7.9
	c-1.7,1.3-5,3.6-6.6,4.6c-2.6-1.7-5.3-3.6-7.9-5.3c3.3,0,10.3-0.3,13.6-0.7c-4-2.3-7.9-4.6-12.2-6.6
	C360.9,409.5,360.9,405.5,360.9,403.5z"/>
<path fill="#FFFFFF" d="M388.7,403.5c5-0.3,10.3-0.3,15.2-0.3c0,5.3,0,10.6,0,15.9c-1.7,1.3-5,3.6-6.6,5c-2.6-2-5.3-4.3-8.3-6.3
	c3.3,0.3,10.3,1,13.6,1c-3-3-5.6-6-8.6-8.6c2-0.7,6-1.7,7.9-2C397.6,406.9,393,405.5,388.7,403.5z"/>
<path fill="#814747" d="M71.5,454.2c41-22.8,89.6-16.5,134.6-17.5c-13.9,12.2-30.4,21.2-48.6,24.8c-18.5,3.6-36.4,9.9-54.3,15.2
	C95.6,465.7,83.4,460.1,71.5,454.2z"/>
<path fill="#0E33F0" d="M30.4,449.5c7.3,4.6,14.2,9.3,21.5,13.9C40,471,27.8,478.3,20.2,490.2C18.9,475.7,19.5,460.4,30.4,449.5z"/>
<path fill="#383737" d="M338.8,453.5c38-0.7,76.4-0.3,114.5-0.3c-3.3,16.5-7.3,32.8-10.9,49.3c-6.3,0.3-12.6,0.7-18.9,0.3
	c-12.6-0.3-23.8-7.9-36.4-7.3c-12.6-0.3-23.8,6.9-36.1,7.3c-7.9,0.3-15.9,0-24.1-0.3C330.8,485.9,335.1,469.7,338.8,453.5z"/>
<path d="M341.1,456.5c35.4-0.3,70.5-0.3,105.9,0c0,1.7-0.3,4.6-0.3,6c-35.1-1-70.1-1-105.2,0.3C341.4,461.4,341.1,458.1,341.1,456.5
	z"/>
<path fill="#0E33F0" d="M28.8,485.3c10.6-12.6,29.1-12.9,38.4-26.5c13.6,5,28.1,9.9,34.1,24.5c-7.3,7.6-15.9,13.9-24.5,19.8
	C61.2,495.8,47,483.6,28.8,485.3z"/>
<path d="M341.1,466.4c27.5-0.3,55.2,0,82.7-0.3c8.6,0,18.2-1.3,25.1,5c-35.7,1.3-71.8-1.3-107.5,1.7
	C341.4,471,341.1,468.1,341.1,466.4z"/>
<path d="M337.8,476.3c35.4-0.3,70.5-0.3,105.9,0c0,1.7-0.3,5-0.3,6.6c-35.1-2.3-70.1-1.3-104.9,0C338.1,481.3,337.8,478,337.8,476.3
	z"/>
<path d="M335.4,490.9c16.5-9.9,37.1-2.6,55.2-4.6c17.2,1.7,36.4-5,51.6,4.6C406.9,493.2,371.2,493.2,335.4,490.9z"/>
<path fill="#814747" d="M0.3,503.1c11.2-6.3,23.5-11.6,36.4-13.2c12.6,1.7,23.2,10.6,34.4,15.9c-21.5,12.6-47,10.6-70.8,14.6V503.1z
	"/>
<path fill="#383737" d="M373.5,500.5c2.6-3.3,8.6-3.3,11.2,0C385.1,505.8,373.2,505.8,373.5,500.5z"/>
<path fill="#383737" d="M393.3,500.1c1.7-4,9.6-2.6,8.3,2.3C399.6,506.4,391.7,504.8,393.3,500.1z"/>
<path fill="#EFEF4D" d="M417.5,400.6c6.3,0,12.9,0,19.5,0c0,7.3,0,14.6,0,21.8c-3.3,3-6.3,5.6-9.6,8.6c-3-3-6.3-6-9.6-8.6
	C417.5,415.1,417.5,407.8,417.5,400.6z"/>
<path fill="#FFFFFF" d="M420.1,403.5c5,0,9.9,0,14.9,0c-4.3,1.7-8.6,3.6-12.9,5.3c3.6,1,7.6,1.7,11.2,2.6c0,2,0,6,0,7.9
	c-1.7,1.3-5,3.6-6.6,5c-2.6-1.7-5.3-3.6-7.9-5.3c3.3,0,10.3-0.3,13.6-0.7c-4-2.3-7.9-4.6-12.2-6.9
	C420.5,409.5,420.1,405.5,420.1,403.5z"/>
<rect x="361.2" y="405.2" fill="#FFFCF8" width="6.3" height="6"/>
<rect x="366.9" y="403.5" fill="#FFFFFF" width="8.9" height="3.3"/>
<rect x="369.8" y="415.8" fill="#FFFFFF" width="3.3" height="3.3"/>
</svg>
