<?xml version="1.0" encoding="UTF-8" ?>
<!DOCTYPE svg PUBLIC "-//W3C//DTD SVG 1.1//EN" "http://www.w3.org/Graphics/SVG/1.1/DTD/svg11.dtd">
<svg width="100pt" height="31pt" viewBox="0 0 100 31" version="1.1" xmlns="http://www.w3.org/2000/svg">
<path fill="#1aabe9" d=" M 0.00 0.00 L 12.47 0.00 C 11.65 0.82 10.83 1.63 10.01 2.45 C 10.01 7.51 9.61 12.65 10.77 17.63 C 9.64 16.78 8.52 15.92 7.41 15.04 C 6.28 15.01 5.15 14.97 4.02 14.94 C 3.99 16.55 3.97 18.15 3.94 19.76 C 5.43 20.85 6.93 21.93 8.43 23.01 C 9.48 23.01 10.54 23.00 11.60 23.00 C 11.93 23.65 12.60 24.94 12.93 25.59 C 12.97 27.39 13.00 29.20 13.03 31.00 L 0.00 31.00 L 0.00 0.00 Z" />
<path fill="#030200" d=" M 12.47 0.00 L 22.26 0.00 C 23.18 0.74 24.10 1.49 25.00 2.26 C 24.98 7.39 25.39 12.59 24.23 17.63 C 25.36 16.78 26.48 15.91 27.59 15.04 C 28.72 15.00 29.85 14.97 30.98 14.94 C 31.01 16.54 31.03 18.15 31.06 19.76 C 29.56 20.85 28.05 21.93 26.55 23.02 C 25.50 23.02 24.45 23.01 23.39 23.00 C 23.06 23.65 22.40 24.97 22.06 25.62 C 22.03 27.41 22.00 29.21 21.98 31.00 L 20.97 31.00 C 20.97 30.25 20.98 28.75 20.99 28.00 C 21.06 26.40 21.28 24.81 21.66 23.25 C 21.77 22.68 21.99 21.54 22.10 20.97 C 25.16 22.84 27.82 20.64 30.16 18.75 C 30.03 17.88 29.77 16.14 29.64 15.27 C 28.54 16.29 27.51 17.38 26.59 18.55 C 25.39 18.32 24.15 18.26 23.04 18.94 C 22.28 18.84 21.52 18.74 20.76 18.62 L 19.22 18.35 L 20.52 17.88 C 21.71 16.84 22.85 15.74 24.00 14.65 C 24.02 10.91 24.02 7.17 24.01 3.43 C 23.19 2.62 22.37 1.80 21.56 0.98 C 18.85 0.98 16.15 0.98 13.44 0.99 C 12.63 1.80 11.81 2.60 10.99 3.41 C 10.98 7.15 10.98 10.89 10.99 14.64 C 12.14 15.73 13.29 16.84 14.49 17.89 L 15.80 18.34 L 14.24 18.61 C 13.47 18.73 12.71 18.84 11.94 18.94 C 10.84 18.26 9.61 18.33 8.42 18.55 C 7.49 17.38 6.46 16.29 5.36 15.28 C 5.23 16.14 4.96 17.87 4.83 18.73 C 7.17 20.62 9.84 22.87 12.90 20.97 C 13.01 21.54 13.23 22.68 13.34 23.25 C 13.72 24.80 13.94 26.40 14.02 28.00 C 14.02 28.75 14.02 30.25 14.02 31.00 L 13.03 31.00 C 13.00 29.20 12.97 27.39 12.93 25.59 C 12.60 24.94 11.93 23.65 11.60 23.00 C 10.54 23.00 9.48 23.01 8.43 23.01 C 6.93 21.93 5.43 20.85 3.94 19.76 C 3.97 18.15 3.99 16.55 4.02 14.94 C 5.15 14.97 6.28 15.01 7.41 15.04 C 8.52 15.92 9.64 16.78 10.77 17.63 C 9.61 12.65 10.01 7.51 10.01 2.45 C 10.83 1.63 11.65 0.82 12.47 0.00 Z" />
<path fill="#ea1abf" d=" M 22.26 0.00 L 44.48 0.00 C 43.66 0.82 42.84 1.64 42.02 2.45 C 42.02 7.52 41.60 12.65 42.78 17.63 C 41.64 16.77 40.51 15.91 39.39 15.03 C 38.27 15.00 37.15 14.97 36.02 14.94 C 35.99 16.54 35.96 18.15 35.94 19.76 C 37.43 20.84 38.93 21.93 40.43 23.02 C 41.49 23.01 42.55 23.01 43.61 23.00 C 43.94 23.65 44.60 24.95 44.93 25.60 C 44.97 27.40 45.00 29.20 45.03 31.00 L 21.98 31.00 C 22.00 29.21 22.03 27.41 22.06 25.62 C 22.40 24.97 23.06 23.65 23.39 23.00 C 24.45 23.01 25.50 23.02 26.55 23.02 C 28.05 21.93 29.56 20.85 31.06 19.76 C 31.03 18.15 31.01 16.54 30.98 14.94 C 29.85 14.97 28.72 15.00 27.59 15.04 C 26.48 15.91 25.36 16.78 24.23 17.63 C 25.39 12.59 24.98 7.39 25.00 2.26 C 24.10 1.49 23.18 0.74 22.26 0.00 Z" />
<path fill="#030200" d=" M 44.48 0.00 L 54.27 0.00 C 55.20 0.74 56.11 1.50 57.01 2.26 C 56.96 7.09 57.41 11.99 56.35 16.75 C 58.85 17.34 61.13 18.54 63.10 20.18 C 63.05 21.79 63.01 23.40 62.97 25.01 C 61.75 25.00 60.52 25.00 59.30 25.00 C 58.90 24.50 58.08 23.51 57.67 23.01 C 57.01 22.99 55.68 22.95 55.01 22.93 C 54.33 25.57 53.96 28.28 53.80 31.00 L 52.91 31.00 C 52.92 30.25 52.95 28.75 52.96 28.00 C 53.06 26.40 53.28 24.81 53.66 23.25 C 53.76 22.69 53.98 21.58 54.08 21.02 C 55.57 21.31 57.07 21.70 58.60 21.51 C 59.53 22.65 60.56 23.72 61.64 24.72 C 61.77 23.86 62.04 22.14 62.17 21.27 C 60.02 20.01 57.75 16.86 55.07 18.95 C 54.30 18.84 53.53 18.73 52.76 18.61 L 51.20 18.32 L 52.51 17.90 C 53.70 16.86 54.85 15.76 56.00 14.67 C 56.01 10.92 56.02 7.17 56.01 3.42 C 55.20 2.61 54.40 1.80 53.60 0.99 C 50.87 0.99 48.15 0.99 45.42 0.99 C 44.62 1.80 43.81 2.61 43.00 3.42 C 42.98 7.17 42.99 10.92 43.00 14.67 C 44.15 15.76 45.28 16.85 46.48 17.89 L 47.80 18.33 L 46.24 18.61 C 45.47 18.73 44.71 18.84 43.95 18.94 C 42.84 18.26 41.61 18.32 40.42 18.55 C 39.49 17.38 38.46 16.29 37.36 15.28 C 37.23 16.14 36.96 17.87 36.83 18.74 C 39.17 20.62 41.84 22.87 44.89 20.97 C 45.01 21.54 45.23 22.70 45.35 23.27 C 45.72 24.82 45.94 26.41 46.05 28.00 C 46.05 28.75 46.07 30.25 46.07 31.00 L 45.03 31.00 C 45.00 29.20 44.97 27.40 44.93 25.60 C 44.60 24.95 43.94 23.65 43.61 23.00 C 42.55 23.01 41.49 23.01 40.43 23.02 C 38.93 21.93 37.43 20.84 35.94 19.76 C 35.96 18.15 35.99 16.54 36.02 14.94 C 37.15 14.97 38.27 15.00 39.39 15.03 C 40.51 15.91 41.64 16.77 42.78 17.63 C 41.60 12.65 42.02 7.52 42.02 2.45 C 42.84 1.64 43.66 0.82 44.48 0.00 Z" />
<path fill="#7a18ea" d=" M 54.27 0.00 L 76.56 0.00 C 75.33 2.42 74.12 4.90 72.18 6.85 C 72.12 7.31 72.00 8.22 71.94 8.68 C 71.46 9.10 70.48 9.96 69.99 10.39 C 70.00 12.78 70.00 15.17 70.00 17.56 C 70.81 18.37 71.61 19.17 72.41 19.98 C 73.06 19.99 74.36 20.02 75.01 20.03 C 75.01 23.69 75.00 27.34 75.00 31.00 L 53.80 31.00 C 53.96 28.28 54.33 25.57 55.01 22.93 C 55.68 22.95 57.01 22.99 57.67 23.01 C 58.08 23.51 58.90 24.50 59.30 25.00 C 60.52 25.00 61.75 25.00 62.97 25.01 C 63.01 23.40 63.05 21.79 63.10 20.18 C 61.13 18.54 58.85 17.34 56.35 16.75 C 57.41 11.99 56.96 7.09 57.01 2.26 C 56.11 1.50 55.20 0.74 54.27 0.00 Z" />
<path fill="#030200" d=" M 76.56 0.00 L 76.98 0.00 C 76.99 0.60 77.01 1.79 77.02 2.38 C 78.77 3.62 80.40 5.04 82.22 6.19 C 83.16 5.22 83.93 4.11 84.73 3.02 C 85.96 3.02 87.18 3.01 88.41 3.00 C 89.21 4.23 90.04 5.45 90.90 6.65 C 90.95 7.33 91.06 8.68 91.11 9.36 C 91.73 9.06 92.97 8.46 93.59 8.16 C 94.03 8.08 94.92 7.92 95.36 7.85 C 96.80 6.56 98.41 5.22 100.00 7.14 L 100.00 10.18 C 98.39 10.73 98.39 11.30 100.00 11.90 L 100.00 14.27 C 99.24 15.20 98.47 16.12 97.68 17.04 C 93.69 16.99 89.70 16.98 85.71 17.00 C 84.22 21.30 79.48 19.82 75.98 20.02 C 75.98 23.68 75.98 27.34 75.98 31.00 L 75.00 31.00 C 75.00 27.34 75.01 23.69 75.01 20.03 C 74.36 20.02 73.06 19.99 72.41 19.98 C 71.61 19.17 70.81 18.37 70.00 17.56 C 70.00 15.17 70.00 12.78 69.99 10.39 C 70.48 9.96 71.46 9.10 71.94 8.68 C 72.00 8.22 72.12 7.31 72.18 6.85 C 74.12 4.90 75.33 2.42 76.56 0.00 Z" />
<path fill="#e1f909" d=" M 76.98 0.00 L 100.00 0.00 L 100.00 7.14 C 98.41 5.22 96.80 6.56 95.36 7.85 C 94.92 7.92 94.03 8.08 93.59 8.16 C 92.97 8.46 91.73 9.06 91.11 9.36 C 91.06 8.68 90.95 7.33 90.90 6.65 C 90.04 5.45 89.21 4.23 88.41 3.00 C 87.18 3.01 85.96 3.02 84.73 3.02 C 83.93 4.11 83.16 5.22 82.22 6.19 C 80.40 5.04 78.77 3.62 77.02 2.38 C 77.01 1.79 76.99 0.60 76.98 0.00 Z" />
<path fill="#e80e95" d=" M 13.44 0.99 C 16.15 0.98 18.85 0.98 21.56 0.98 C 22.37 1.80 23.19 2.62 24.01 3.43 C 24.02 7.17 24.02 10.91 24.00 14.65 C 22.85 15.74 21.71 16.84 20.52 17.88 L 19.22 18.35 C 18.08 18.33 16.94 18.32 15.80 18.34 L 14.49 17.89 C 13.29 16.84 12.14 15.73 10.99 14.64 C 10.98 10.89 10.98 7.15 10.99 3.41 C 11.81 2.60 12.63 1.80 13.44 0.99 Z" />
<path fill="#7a18ea" d=" M 45.42 0.99 C 48.15 0.99 50.87 0.99 53.60 0.99 C 54.40 1.80 55.20 2.61 56.01 3.42 C 56.02 7.17 56.01 10.92 56.00 14.67 C 54.85 15.76 53.70 16.86 52.51 17.90 L 51.20 18.32 C 50.06 18.31 48.93 18.31 47.80 18.33 L 46.48 17.89 C 45.28 16.85 44.15 15.76 43.00 14.67 C 42.99 10.92 42.98 7.17 43.00 3.42 C 43.81 2.61 44.62 1.80 45.42 0.99 Z" />
<path fill="#1aabe9" d=" M 11.86 2.68 C 13.38 3.92 14.96 5.13 17.00 5.25 C 17.00 5.69 17.00 6.56 17.00 7.00 L 17.99 7.00 C 17.99 6.55 18.00 5.67 18.00 5.22 C 20.04 5.13 21.67 4.07 23.06 2.62 C 22.62 4.99 24.04 8.25 21.77 9.93 C 21.29 9.69 20.33 9.22 19.85 8.98 C 19.95 9.56 20.16 10.71 20.26 11.29 C 20.94 12.77 21.04 14.40 21.20 16.00 C 18.73 16.00 16.27 16.00 13.81 16.00 C 13.96 14.41 14.03 12.77 14.75 11.30 C 14.85 10.72 15.05 9.56 15.15 8.98 C 14.08 9.78 12.55 10.43 12.11 8.59 C 11.87 6.63 11.96 4.65 11.86 2.68 Z" />
<path fill="#1aabe9" d=" M 44.00 2.70 L 44.99 2.82 L 45.02 5.28 C 46.38 4.88 47.73 4.46 49.07 4.02 C 49.05 4.76 49.01 6.25 48.99 7.00 L 50.01 7.00 C 49.99 6.25 49.95 4.76 49.93 4.01 C 51.22 4.43 52.51 4.85 53.80 5.26 L 54.39 2.02 C 55.02 4.17 55.05 6.41 55.03 8.63 C 54.44 9.90 50.78 10.99 52.99 12.53 C 53.00 13.69 53.00 14.84 53.00 16.00 C 50.67 16.00 48.33 16.00 46.00 16.00 C 46.00 14.68 46.00 13.36 46.00 12.03 L 47.28 11.86 C 46.18 10.81 45.08 9.75 44.00 8.68 C 44.00 6.69 44.00 4.70 44.00 2.70 Z" />
<path fill="#e5d6be" d=" M 74.55 7.00 C 75.16 5.78 75.57 4.23 77.05 3.80 C 79.01 5.06 80.53 6.90 81.52 9.00 C 81.77 9.00 82.28 9.02 82.54 9.02 C 83.46 7.32 84.52 5.69 85.44 3.98 C 85.97 3.98 87.03 3.98 87.56 3.98 C 88.46 5.66 89.50 7.25 90.44 8.90 C 89.95 8.93 88.96 9.00 88.47 9.03 C 87.83 7.91 87.21 6.79 86.59 5.66 C 85.90 7.26 84.86 8.67 83.79 10.04 C 87.19 9.96 90.59 10.00 94.00 10.00 C 94.00 12.10 94.01 14.19 94.02 16.29 L 93.03 15.95 C 93.02 15.50 93.01 14.62 93.00 14.18 C 91.37 13.98 89.60 14.11 88.24 12.99 C 86.86 13.00 85.48 13.14 84.28 13.87 C 83.33 10.20 78.66 9.61 77.72 5.81 C 76.35 7.22 74.92 8.61 73.15 9.51 C 73.10 8.88 73.01 7.63 72.97 7.01 C 73.36 7.00 74.16 7.00 74.55 7.00 Z" />
<path fill="#030200" d=" M 13.19 7.75 C 11.52 5.20 17.47 5.19 15.81 7.75 C 15.16 7.75 13.85 7.75 13.19 7.75 Z" />
<path fill="#030200" d=" M 19.20 6.25 C 20.17 5.04 23.03 6.18 21.80 7.75 C 20.83 8.96 17.97 7.82 19.20 6.25 Z" />
<path fill="#030200" d=" M 45.18 6.29 C 46.10 5.00 49.00 6.14 47.82 7.72 C 46.90 9.01 44.00 7.86 45.18 6.29 Z" />
<path fill="#030200" d=" M 51.20 6.27 C 52.13 5.00 55.03 6.17 53.82 7.74 C 52.89 9.01 49.99 7.84 51.20 6.27 Z" />
<path fill="#030200" d=" M 17.15 8.23 C 18.47 7.86 19.71 9.83 18.64 10.81 C 18.07 10.80 16.91 10.79 16.33 10.79 C 15.69 9.69 15.96 8.84 17.15 8.23 Z" />
<path fill="#030200" d=" M 49.12 8.29 C 50.92 7.71 51.97 10.78 49.95 11.15 C 48.00 11.83 47.12 8.73 49.12 8.29 Z" />
<path fill="#f00423" d=" M 94.00 9.35 C 95.93 9.02 97.62 8.10 99.12 6.84 C 99.76 10.15 96.35 11.29 94.41 13.15 C 96.05 12.95 97.65 12.57 99.20 12.00 C 99.14 12.72 99.02 14.16 98.95 14.88 C 97.31 15.34 95.67 15.83 94.02 16.29 C 94.01 14.19 94.00 12.10 94.00 10.00 L 94.00 9.35 Z" />
<path fill="#f00423" d=" M 72.99 10.13 C 76.16 8.58 79.58 9.61 82.25 11.64 C 81.45 11.77 79.85 12.04 79.05 12.18 C 78.96 13.72 78.86 15.26 78.75 16.79 C 77.40 15.46 76.10 14.07 74.82 12.66 C 74.87 13.25 74.97 14.42 75.02 15.00 L 74.22 15.00 C 74.03 14.05 73.65 12.14 73.46 11.19 C 73.15 13.53 73.01 15.88 72.90 18.24 C 72.41 17.85 71.42 17.06 70.92 16.67 C 71.25 14.43 69.90 10.78 72.99 10.13 Z" />
<path fill="#e1f909" d=" M 100.00 11.90 C 98.39 11.30 98.39 10.73 100.00 10.18 L 100.00 11.90 Z" />
<path fill="#e1f909" d=" M 72.90 18.24 C 73.01 15.88 73.15 13.53 73.46 11.19 C 73.65 12.14 74.03 14.05 74.22 15.00 L 75.02 15.00 C 74.97 14.42 74.87 13.25 74.82 12.66 C 76.10 14.07 77.40 15.46 78.75 16.79 C 78.86 15.26 78.96 13.72 79.05 12.18 C 79.85 12.04 81.45 11.77 82.25 11.64 C 82.24 12.01 82.21 12.76 82.20 13.13 C 82.09 15.15 82.05 17.18 82.05 19.20 C 78.99 18.97 75.93 19.01 72.87 19.01 L 72.90 18.24 Z" />
<path fill="#030200" d=" M 15.00 13.00 C 16.67 13.00 18.33 13.00 20.00 13.00 C 20.00 13.50 20.00 14.50 20.00 15.00 C 18.33 15.00 16.67 15.00 15.00 15.00 C 15.00 14.50 15.00 13.50 15.00 13.00 Z" />
<path fill="#030200" d=" M 46.60 12.64 C 48.53 12.65 50.46 12.65 52.39 12.65 C 52.40 13.32 52.40 14.68 52.40 15.36 C 50.47 15.35 48.53 15.35 46.60 15.36 C 46.60 14.68 46.60 13.32 46.60 12.64 Z" />
<path fill="#030200" d=" M 80.30 13.17 C 81.74 13.72 81.24 16.59 80.70 17.83 C 79.26 17.27 79.75 14.41 80.30 13.17 Z" />
<path fill="#f00423" d=" M 82.20 13.13 L 82.38 11.55 C 83.84 13.86 85.32 17.66 82.05 19.20 C 82.05 17.18 82.09 15.15 82.20 13.13 Z" />
<path fill="#e5d6be" d=" M 86.18 14.16 C 87.82 13.66 88.37 14.22 87.83 15.84 C 86.19 16.35 85.64 15.79 86.18 14.16 Z" />
<path fill="#e5d6be" d=" M 89.18 15.18 C 89.86 15.86 89.86 15.86 89.18 15.18 Z" />
<path fill="#e5d6be" d=" M 91.19 15.18 C 91.86 15.87 91.86 15.87 91.19 15.18 Z" />
<path fill="#e1f909" d=" M 97.68 17.04 C 98.47 16.12 99.24 15.20 100.00 14.27 L 100.00 31.00 L 75.98 31.00 C 75.98 27.34 75.98 23.68 75.98 20.02 C 79.48 19.82 84.22 21.30 85.71 17.00 C 89.70 16.98 93.69 16.99 97.68 17.04 Z" />
<path fill="#e5d6be" d=" M 5.36 15.28 C 6.46 16.29 7.49 17.38 8.42 18.55 C 9.61 18.33 10.84 18.26 11.94 18.94 C 12.71 18.84 13.47 18.73 14.24 18.61 L 15.80 18.34 C 16.94 18.32 18.08 18.33 19.22 18.35 L 20.76 18.62 C 21.52 18.74 22.28 18.84 23.04 18.94 C 24.15 18.26 25.39 18.32 26.59 18.55 C 27.51 17.38 28.54 16.29 29.64 15.27 C 29.77 16.14 30.03 17.88 30.16 18.75 C 27.82 20.64 25.16 22.84 22.10 20.97 C 21.99 21.54 21.77 22.68 21.66 23.25 C 21.28 24.81 21.06 26.40 20.99 28.00 C 18.66 28.00 16.34 28.00 14.02 28.00 C 13.94 26.40 13.72 24.80 13.34 23.25 C 13.23 22.68 13.01 21.54 12.90 20.97 C 9.84 22.87 7.17 20.62 4.83 18.73 C 4.96 17.87 5.23 16.14 5.36 15.28 Z" />
<path fill="#e5d6be" d=" M 37.36 15.28 C 38.46 16.29 39.49 17.38 40.42 18.55 C 41.61 18.32 42.84 18.26 43.95 18.94 C 44.71 18.84 45.47 18.73 46.24 18.61 L 47.80 18.33 C 48.93 18.31 50.06 18.31 51.20 18.32 L 52.76 18.61 C 53.53 18.73 54.30 18.84 55.07 18.95 C 57.75 16.86 60.02 20.01 62.17 21.27 C 62.04 22.14 61.77 23.86 61.64 24.72 C 60.56 23.72 59.53 22.65 58.60 21.51 C 57.07 21.70 55.57 21.31 54.08 21.02 C 53.98 21.58 53.76 22.69 53.66 23.25 C 53.28 24.81 53.06 26.40 52.96 28.00 C 50.65 28.00 48.35 28.00 46.05 28.00 C 45.94 26.41 45.72 24.82 45.35 23.27 C 45.23 22.70 45.01 21.54 44.89 20.97 C 41.84 22.87 39.17 20.62 36.83 18.74 C 36.96 17.87 37.23 16.14 37.36 15.28 Z" />
<path fill="#030200" d=" M 74.15 16.19 C 75.76 15.63 76.33 16.17 75.85 17.81 C 74.24 18.37 73.67 17.83 74.15 16.19 Z" />
<path fill="#030200" d=" M 78.22 17.22 C 78.88 17.88 78.88 17.88 78.22 17.22 Z" />
<path fill="#030200" d=" M 13.69 20.02 C 16.23 19.98 18.77 19.98 21.31 20.02 C 21.01 21.26 20.62 22.48 20.16 23.68 C 20.08 24.78 20.00 25.89 19.94 27.00 C 18.31 27.00 16.69 27.00 15.06 27.00 C 15.00 25.89 14.92 24.79 14.84 23.68 C 14.38 22.48 13.99 21.26 13.69 20.02 Z" />
<path fill="#030200" d=" M 45.69 20.02 C 48.23 19.98 50.77 19.98 53.31 20.02 C 53.00 21.26 52.62 22.48 52.16 23.68 C 52.08 24.79 52.00 25.90 51.94 27.01 C 50.31 27.01 48.69 27.01 47.06 27.01 C 47.00 25.90 46.92 24.79 46.84 23.68 C 46.38 22.48 46.00 21.26 45.69 20.02 Z" />
<path fill="#e5d6be" d=" M 15.24 21.11 C 18.31 19.56 15.50 24.34 15.24 21.11 Z" />
<path fill="#e5d6be" d=" M 18.24 21.11 C 21.33 19.57 18.48 24.34 18.24 21.11 Z" />
<path fill="#e5d6be" d=" M 47.24 21.11 C 50.32 19.56 47.49 24.34 47.24 21.11 Z" />
<path fill="#e5d6be" d=" M 50.24 21.10 C 53.33 19.58 50.46 24.34 50.24 21.10 Z" />
<path fill="#e5d6be" d=" M 16.19 23.19 C 16.87 23.88 16.87 23.88 16.19 23.19 Z" />
<path fill="#e5d6be" d=" M 18.18 23.20 C 18.86 23.88 18.86 23.88 18.18 23.20 Z" />
<path fill="#e5d6be" d=" M 48.18 23.17 C 48.86 23.86 48.86 23.86 48.18 23.17 Z" />
<path fill="#e5d6be" d=" M 50.18 23.19 C 50.86 23.87 50.86 23.87 50.18 23.19 Z" />
<path fill="#e5d6be" d=" M 16.18 25.18 C 16.86 25.86 16.86 25.86 16.18 25.18 Z" />
<path fill="#e5d6be" d=" M 18.20 25.20 C 18.88 25.88 18.88 25.88 18.20 25.20 Z" />
<path fill="#e5d6be" d=" M 48.19 25.21 C 48.87 25.89 48.87 25.89 48.19 25.21 Z" />
<path fill="#e5d6be" d=" M 50.21 25.18 C 50.89 25.86 50.89 25.86 50.21 25.18 Z" />
<path fill="#1aabe9" d=" M 14.02 28.00 C 16.34 28.00 18.66 28.00 20.99 28.00 C 20.98 28.75 20.97 30.25 20.97 31.00 L 17.86 31.00 C 17.87 30.55 17.90 29.66 17.92 29.21 L 17.20 29.38 C 17.17 29.78 17.10 30.59 17.07 31.00 L 14.02 31.00 C 14.02 30.25 14.02 28.75 14.02 28.00 Z" />
<path fill="#7a18ea" d=" M 46.05 28.00 C 48.35 28.00 50.65 28.00 52.96 28.00 C 52.95 28.75 52.92 30.25 52.91 31.00 L 49.92 31.00 C 51.36 28.92 47.64 28.94 49.11 31.00 L 46.07 31.00 C 46.07 30.25 46.05 28.75 46.05 28.00 Z" />
<path fill="#030200" d=" M 17.20 29.38 L 17.92 29.21 C 17.90 29.66 17.87 30.55 17.86 31.00 L 17.07 31.00 C 17.10 30.59 17.17 29.78 17.20 29.38 Z" />
<path fill="#030200" d=" M 49.11 31.00 C 47.64 28.94 51.36 28.92 49.92 31.00 L 49.11 31.00 Z" />
</svg>
