<?xml version="1.0" encoding="UTF-8" ?>
<!DOCTYPE svg PUBLIC "-//W3C//DTD SVG 1.1//EN" "http://www.w3.org/Graphics/SVG/1.1/DTD/svg11.dtd">
<svg width="100pt" height="31pt" viewBox="0 0 100 31" version="1.1" xmlns="http://www.w3.org/2000/svg">
<path fill="#1aaaea" d=" M 0.00 0.00 L 12.47 0.00 C 11.65 0.82 10.82 1.63 10.00 2.44 C 10.00 6.80 10.00 11.17 10.00 15.53 C 10.81 16.35 11.61 17.17 12.41 17.99 C 11.65 18.00 10.13 18.02 9.37 18.02 C 8.94 17.52 8.06 16.50 7.62 15.99 C 6.01 16.00 4.40 16.01 2.79 16.02 C 3.17 17.97 2.42 20.54 4.34 21.83 C 6.82 22.16 9.33 22.02 11.82 22.03 C 11.97 22.61 12.28 23.75 12.44 24.32 C 12.76 26.54 12.99 28.77 13.26 31.00 L 0.00 31.00 L 0.00 0.00 Z" />
<path fill="#010101" d=" M 12.47 0.00 L 22.25 0.00 C 23.19 0.74 24.11 1.50 25.03 2.26 C 24.99 6.69 25.00 11.12 25.00 15.55 C 24.19 16.36 23.38 17.17 22.57 17.99 C 23.34 18.00 24.87 18.02 25.63 18.03 C 26.06 17.52 26.93 16.50 27.36 15.99 C 28.97 16.00 30.59 16.01 32.20 16.02 C 31.83 17.97 32.59 20.55 30.65 21.84 C 28.17 22.15 25.67 22.02 23.18 22.03 C 23.03 22.60 22.72 23.75 22.56 24.33 C 22.22 26.54 22.01 28.77 21.77 31.00 L 20.96 31.00 C 20.97 30.25 21.00 28.75 21.01 28.00 C 21.09 26.42 21.29 24.85 21.61 23.30 C 21.75 22.73 22.04 21.58 22.19 21.01 C 24.70 21.01 27.22 21.14 29.73 20.89 C 30.68 19.84 31.00 18.43 31.51 17.15 C 30.73 17.10 29.16 17.00 28.38 16.95 C 27.94 17.47 27.06 18.51 26.62 19.03 C 24.58 19.00 22.54 18.97 20.50 18.90 C 20.75 18.47 21.25 17.61 21.50 17.18 C 22.29 16.23 23.14 15.34 23.97 14.44 C 24.01 10.77 24.00 7.10 24.00 3.43 C 23.18 2.62 22.37 1.81 21.55 1.00 C 18.85 1.00 16.15 1.00 13.44 1.00 C 12.63 1.81 11.82 2.61 11.00 3.41 C 10.99 7.14 10.99 10.88 11.00 14.61 C 11.85 15.39 12.70 16.18 13.55 16.97 C 13.77 17.46 14.22 18.44 14.44 18.92 C 12.42 18.98 10.40 19.00 8.37 19.02 C 7.94 18.51 7.06 17.47 6.62 16.95 C 5.84 17.00 4.27 17.10 3.49 17.15 C 4.00 18.43 4.32 19.85 5.28 20.89 C 7.78 21.14 10.30 21.01 12.81 21.01 C 12.96 21.58 13.25 22.73 13.39 23.30 C 13.71 24.85 13.91 26.42 13.99 28.00 C 14.00 28.75 14.02 30.25 14.02 31.00 L 13.26 31.00 C 12.99 28.77 12.76 26.54 12.44 24.32 C 12.28 23.75 11.97 22.61 11.82 22.03 C 9.33 22.02 6.82 22.16 4.34 21.83 C 2.42 20.54 3.17 17.97 2.79 16.02 C 4.40 16.01 6.01 16.00 7.62 15.99 C 8.06 16.50 8.94 17.52 9.37 18.02 C 10.13 18.02 11.65 18.00 12.41 17.99 C 11.61 17.17 10.81 16.35 10.00 15.53 C 10.00 11.17 10.00 6.80 10.00 2.44 C 10.82 1.63 11.65 0.82 12.47 0.00 Z" />
<path fill="#ea1abf" d=" M 22.25 0.00 L 44.46 0.00 C 43.64 0.82 42.83 1.63 42.01 2.45 C 42.02 7.36 41.61 12.33 42.70 17.16 C 42.14 17.11 41.03 17.00 40.48 16.95 C 38.95 18.03 37.44 19.15 35.94 20.27 C 35.97 21.85 36.00 23.42 36.03 25.00 C 37.23 25.00 38.43 25.00 39.63 25.00 C 40.06 24.50 40.92 23.50 41.36 23.00 C 41.91 22.99 43.02 22.99 43.57 22.98 C 43.92 23.64 44.60 24.97 44.94 25.63 C 44.98 27.42 45.01 29.21 45.03 31.00 L 21.77 31.00 C 22.01 28.77 22.22 26.54 22.56 24.33 C 22.72 23.75 23.03 22.60 23.18 22.03 C 25.67 22.02 28.17 22.15 30.65 21.84 C 32.59 20.55 31.83 17.97 32.20 16.02 C 30.59 16.01 28.97 16.00 27.36 15.99 C 26.93 16.50 26.06 17.52 25.63 18.03 C 24.87 18.02 23.34 18.00 22.57 17.99 C 23.38 17.17 24.19 16.36 25.00 15.55 C 25.00 11.12 24.99 6.69 25.03 2.26 C 24.11 1.50 23.19 0.74 22.25 0.00 Z" />
<path fill="#010101" d=" M 44.46 0.00 L 54.26 0.00 C 55.19 0.74 56.11 1.49 57.02 2.25 C 57.04 7.38 57.29 12.54 56.30 17.60 C 57.41 16.76 58.51 15.90 59.61 15.03 C 60.73 15.00 61.85 14.97 62.97 14.94 C 63.00 16.55 63.03 18.15 63.06 19.76 C 61.55 20.87 60.04 21.95 58.52 23.03 C 57.33 23.00 56.15 22.97 54.96 22.93 C 54.36 25.59 54.00 28.29 53.75 31.00 L 52.89 31.00 C 52.91 30.25 52.95 28.75 52.97 28.00 C 53.08 26.41 53.29 24.83 53.63 23.28 C 53.76 22.71 54.00 21.57 54.12 21.00 C 57.18 22.87 59.83 20.58 62.19 18.76 C 62.05 17.88 61.75 16.13 61.61 15.25 C 60.57 16.27 59.56 17.33 58.60 18.42 C 57.39 18.40 56.16 18.44 55.01 18.90 C 54.26 18.81 53.50 18.72 52.75 18.61 L 51.20 18.36 L 52.48 17.90 C 53.69 16.86 54.84 15.76 56.00 14.67 C 55.98 10.95 56.13 7.23 55.88 3.51 L 54.99 2.41 C 54.69 2.05 54.07 1.33 53.77 0.97 C 50.92 0.98 48.08 0.99 45.23 0.96 C 44.93 1.32 44.32 2.04 44.02 2.39 L 43.12 3.50 C 42.85 7.22 43.01 10.96 43.01 14.68 C 44.16 15.77 45.31 16.86 46.51 17.90 L 47.80 18.35 L 46.24 18.61 C 45.49 18.72 44.74 18.83 43.99 18.93 C 41.29 16.90 39.00 19.97 36.82 21.23 C 36.96 22.11 37.25 23.87 37.39 24.75 C 38.43 23.74 39.43 22.68 40.39 21.59 C 41.84 21.64 43.26 21.33 44.69 21.09 C 45.05 22.31 45.45 23.52 45.87 24.73 C 45.91 25.82 45.95 26.91 45.97 28.00 C 45.99 28.75 46.03 30.25 46.04 31.00 L 45.03 31.00 C 45.01 29.21 44.98 27.42 44.94 25.63 C 44.60 24.97 43.92 23.64 43.57 22.98 C 43.02 22.99 41.91 22.99 41.36 23.00 C 40.92 23.50 40.06 24.50 39.63 25.00 C 38.43 25.00 37.23 25.00 36.03 25.00 C 36.00 23.42 35.97 21.85 35.94 20.27 C 37.44 19.15 38.95 18.03 40.48 16.95 C 41.03 17.00 42.14 17.11 42.70 17.16 C 41.61 12.33 42.02 7.36 42.01 2.45 C 42.83 1.63 43.64 0.82 44.46 0.00 Z" />
<path fill="#7a19ea" d=" M 54.26 0.00 L 76.01 0.00 C 76.10 5.38 75.62 10.80 76.37 16.15 C 76.38 17.55 77.27 19.13 76.52 20.47 C 75.55 20.93 74.54 21.31 73.51 21.61 C 73.13 22.09 72.38 23.07 72.00 23.55 C 72.00 26.03 72.00 28.52 72.00 31.00 L 53.75 31.00 C 54.00 28.29 54.36 25.59 54.96 22.93 C 56.15 22.97 57.33 23.00 58.52 23.03 C 60.04 21.95 61.55 20.87 63.06 19.76 C 63.03 18.15 63.00 16.55 62.97 14.94 C 61.85 14.97 60.73 15.00 59.61 15.03 C 58.51 15.90 57.41 16.76 56.30 17.60 C 57.29 12.54 57.04 7.38 57.02 2.25 C 56.11 1.49 55.19 0.74 54.26 0.00 Z" />
<path fill="#010101" d=" M 76.01 0.00 L 77.11 0.00 C 77.04 7.08 76.47 14.25 77.83 21.25 C 80.80 20.94 83.84 20.82 86.75 21.63 C 88.25 21.90 89.75 22.13 91.25 22.40 C 92.43 22.46 93.61 22.45 94.79 22.37 C 95.86 22.18 96.93 22.00 98.00 21.83 C 98.00 23.22 98.00 24.60 98.00 25.99 C 98.50 26.00 99.50 26.00 100.00 26.01 L 100.00 27.20 C 99.24 27.14 97.72 27.03 96.96 26.98 C 96.27 26.77 94.91 26.37 94.23 26.16 C 92.15 26.05 90.07 25.99 88.00 25.95 L 88.00 25.00 C 90.99 25.00 93.98 25.00 96.98 25.00 C 96.99 24.49 97.03 23.46 97.04 22.95 C 94.81 23.66 92.45 24.38 90.20 23.29 C 89.16 23.14 88.12 23.00 87.08 22.87 C 86.96 25.59 87.38 28.49 86.07 31.00 L 72.00 31.00 C 72.00 28.52 72.00 26.03 72.00 23.55 C 72.38 23.07 73.13 22.09 73.51 21.61 C 74.54 21.31 75.55 20.93 76.52 20.47 C 77.27 19.13 76.38 17.55 76.37 16.15 C 75.62 10.80 76.10 5.38 76.01 0.00 Z" />
<path fill="#e1f909" d=" M 77.11 0.00 L 100.00 0.00 L 100.00 26.01 C 99.50 26.00 98.50 26.00 98.00 25.99 C 98.00 24.60 98.00 23.22 98.00 21.83 C 96.93 22.00 95.86 22.18 94.79 22.37 C 93.61 22.45 92.43 22.46 91.25 22.40 C 89.75 22.13 88.25 21.90 86.75 21.63 C 83.84 20.82 80.80 20.94 77.83 21.25 C 76.47 14.25 77.04 7.08 77.11 0.00 Z" />
<path fill="#e80e95" d=" M 13.44 1.00 C 16.15 1.00 18.85 1.00 21.55 1.00 C 22.37 1.81 23.18 2.62 24.00 3.43 C 24.00 7.10 24.01 10.77 23.97 14.44 C 23.14 15.34 22.29 16.23 21.50 17.18 C 18.85 17.10 16.20 17.09 13.55 16.97 C 12.70 16.18 11.85 15.39 11.00 14.61 C 10.99 10.88 10.99 7.14 11.00 3.41 C 11.82 2.61 12.63 1.81 13.44 1.00 Z" />
<path fill="#7a19ea" d=" M 45.23 0.96 C 48.08 0.99 50.92 0.98 53.77 0.97 C 54.07 1.33 54.69 2.05 54.99 2.41 C 54.61 3.11 53.85 4.50 53.47 5.20 C 52.30 4.79 51.14 4.37 49.98 3.95 C 49.99 4.71 50.00 6.24 50.00 7.00 L 49.00 7.00 C 49.00 6.24 49.01 4.71 49.02 3.95 C 47.86 4.38 46.70 4.80 45.53 5.21 C 45.15 4.50 44.40 3.10 44.02 2.39 C 44.32 2.04 44.93 1.32 45.23 0.96 Z" />
<path fill="#7a19ea" d=" M 43.12 3.50 L 44.02 2.39 C 43.99 4.51 43.99 6.63 43.99 8.75 C 44.87 9.52 45.74 10.29 46.62 11.06 C 46.27 12.70 45.97 14.35 45.69 16.00 C 48.23 16.00 50.76 16.00 53.30 16.00 C 53.03 14.36 52.74 12.72 52.41 11.10 C 53.27 10.31 54.13 9.52 55.00 8.74 C 55.00 6.63 55.00 4.52 54.99 2.41 L 55.88 3.51 C 56.13 7.23 55.98 10.95 56.00 14.67 C 54.84 15.76 53.69 16.86 52.48 17.90 L 51.20 18.36 C 50.07 18.34 48.93 18.34 47.80 18.35 L 46.51 17.90 C 45.31 16.86 44.16 15.77 43.01 14.68 C 43.01 10.96 42.85 7.22 43.12 3.50 Z" />
<path fill="#1aaaea" d=" M 44.02 2.39 C 44.40 3.10 45.15 4.50 45.53 5.21 C 46.70 4.80 47.86 4.38 49.02 3.95 C 49.01 4.71 49.00 6.24 49.00 7.00 L 50.00 7.00 C 50.00 6.24 49.99 4.71 49.98 3.95 C 51.14 4.37 52.30 4.79 53.47 5.20 C 53.85 4.50 54.61 3.11 54.99 2.41 C 55.00 4.52 55.00 6.63 55.00 8.74 C 54.13 9.52 53.27 10.31 52.41 11.10 C 52.74 12.72 53.03 14.36 53.30 16.00 C 50.76 16.00 48.23 16.00 45.69 16.00 C 45.97 14.35 46.27 12.70 46.62 11.06 C 45.74 10.29 44.87 9.52 43.99 8.75 C 43.99 6.63 43.99 4.51 44.02 2.39 Z" />
<path fill="#1aaaea" d=" M 11.86 2.70 C 13.39 3.92 15.00 5.07 17.00 5.28 C 17.00 5.71 17.00 6.57 17.00 7.00 L 18.00 7.00 C 18.00 6.56 18.00 5.69 18.00 5.26 C 20.02 5.09 21.66 4.01 23.10 2.64 C 23.03 4.63 23.13 6.63 22.89 8.61 C 22.54 10.40 20.84 9.63 19.83 9.05 C 19.95 9.61 20.19 10.73 20.30 11.28 C 20.85 12.80 21.03 14.41 21.24 16.00 C 18.75 16.00 16.26 16.00 13.76 16.00 C 13.97 14.41 14.14 12.81 14.69 11.29 C 14.81 10.72 15.05 9.59 15.17 9.03 C 14.08 9.72 12.58 10.38 12.11 8.60 C 11.87 6.65 11.95 4.67 11.86 2.70 Z" />
<path fill="#010101" d=" M 13.21 7.76 C 11.97 6.20 14.81 5.02 15.80 6.24 C 17.04 7.80 14.20 8.97 13.21 7.76 Z" />
<path fill="#010101" d=" M 19.20 6.24 C 20.18 5.03 23.03 6.19 21.79 7.76 C 20.81 8.97 17.97 7.81 19.20 6.24 Z" />
<path fill="#010101" d=" M 45.19 6.34 C 46.17 5.10 49.02 6.27 47.80 7.84 C 46.85 9.12 43.98 7.88 45.19 6.34 Z" />
<path fill="#010101" d=" M 51.19 6.33 C 52.13 5.05 55.02 6.27 53.77 7.82 C 52.81 9.11 49.99 7.88 51.19 6.33 Z" />
<path fill="#010101" d=" M 16.35 10.81 C 15.29 9.83 16.53 7.85 17.86 8.24 C 19.05 8.85 19.31 9.71 18.66 10.80 C 18.08 10.80 16.93 10.81 16.35 10.81 Z" />
<path fill="#010101" d=" M 49.10 8.31 C 50.92 7.70 51.98 10.78 49.94 11.15 C 48.01 11.83 47.08 8.74 49.10 8.31 Z" />
<path fill="#010101" d=" M 15.01 13.00 C 16.67 13.00 18.33 13.00 20.00 13.00 C 20.00 13.50 20.00 14.50 20.00 15.00 C 18.33 15.00 16.67 15.00 15.00 15.00 C 15.00 14.50 15.00 13.50 15.01 13.00 Z" />
<path fill="#010101" d=" M 46.35 12.71 C 48.33 12.69 50.31 12.69 52.29 12.69 C 52.31 13.37 52.35 14.74 52.37 15.42 C 50.02 15.08 46.14 16.40 46.35 12.71 Z" />
<path fill="#e5d6be" d=" M 58.60 18.42 C 59.56 17.33 60.57 16.27 61.61 15.25 C 61.75 16.13 62.05 17.88 62.19 18.76 C 59.83 20.58 57.18 22.87 54.12 21.00 C 54.00 21.57 53.76 22.71 53.63 23.28 C 53.29 24.83 53.08 26.41 52.97 28.00 C 50.64 28.00 48.31 28.00 45.97 28.00 C 45.95 26.91 45.91 25.82 45.87 24.73 C 45.45 23.52 45.05 22.31 44.69 21.09 C 43.26 21.33 41.84 21.64 40.39 21.59 C 39.43 22.68 38.43 23.74 37.39 24.75 C 37.25 23.87 36.96 22.11 36.82 21.23 C 39.00 19.97 41.29 16.90 43.99 18.93 C 44.74 18.83 45.49 18.72 46.24 18.61 L 47.80 18.35 C 48.93 18.34 50.07 18.34 51.20 18.36 L 52.75 18.61 C 53.50 18.72 54.26 18.81 55.01 18.90 C 56.16 18.44 57.39 18.40 58.60 18.42 Z" />
<path fill="#e5d6be" d=" M 3.49 17.15 C 4.27 17.10 5.84 17.00 6.62 16.95 C 7.06 17.47 7.94 18.51 8.37 19.02 C 10.40 19.00 12.42 18.98 14.44 18.92 C 14.22 18.44 13.77 17.46 13.55 16.97 C 16.20 17.09 18.85 17.10 21.50 17.18 C 21.25 17.61 20.75 18.47 20.50 18.90 C 22.54 18.97 24.58 19.00 26.62 19.03 C 27.06 18.51 27.94 17.47 28.38 16.95 C 29.16 17.00 30.73 17.10 31.51 17.15 C 31.00 18.43 30.68 19.84 29.73 20.89 C 27.22 21.14 24.70 21.01 22.19 21.01 C 22.04 21.58 21.75 22.73 21.61 23.30 C 21.29 24.85 21.09 26.42 21.01 28.00 C 18.67 28.00 16.33 28.01 13.99 28.00 C 13.91 26.42 13.71 24.85 13.39 23.30 C 13.25 22.73 12.96 21.58 12.81 21.01 C 10.30 21.01 7.78 21.14 5.28 20.89 C 4.32 19.85 4.00 18.43 3.49 17.15 Z" />
<path fill="#010101" d=" M 13.67 20.02 C 16.22 19.98 18.78 19.98 21.33 20.02 C 20.99 21.26 20.60 22.49 20.16 23.70 C 20.08 24.80 20.00 25.90 19.93 27.00 C 18.31 27.00 16.69 27.00 15.07 27.00 C 15.00 25.90 14.92 24.80 14.84 23.70 C 14.40 22.49 14.01 21.26 13.67 20.02 Z" />
<path fill="#010101" d=" M 45.67 20.02 C 48.22 19.98 50.78 19.98 53.33 20.02 C 52.99 21.26 52.60 22.49 52.16 23.70 C 52.08 24.80 52.00 25.90 51.93 27.01 C 50.31 27.01 48.69 27.01 47.07 27.01 C 47.00 25.90 46.92 24.80 46.83 23.70 C 46.40 22.49 46.01 21.26 45.67 20.02 Z" />
<path fill="#e5d6be" d=" M 15.25 21.10 C 18.35 19.59 15.44 24.34 15.25 21.10 Z" />
<path fill="#e5d6be" d=" M 18.24 21.10 C 21.33 19.58 18.46 24.34 18.24 21.10 Z" />
<path fill="#e5d6be" d=" M 47.24 21.10 C 50.33 19.58 47.46 24.34 47.24 21.10 Z" />
<path fill="#e5d6be" d=" M 50.24 21.10 C 53.33 19.57 50.46 24.34 50.24 21.10 Z" />
<path fill="#e1f909" d=" M 74.11 24.25 C 74.18 22.61 74.91 22.04 76.31 22.56 L 76.77 22.73 L 76.95 22.29 L 76.50 22.11 L 77.48 22.00 C 78.22 23.21 78.97 24.41 79.74 25.60 C 79.84 24.93 80.04 23.60 80.15 22.94 C 81.80 23.00 83.46 23.07 85.12 23.15 C 84.88 25.03 84.88 26.92 85.03 28.81 L 85.10 29.99 C 81.07 30.01 77.04 30.00 73.00 30.00 C 73.00 28.60 72.98 27.21 72.97 25.81 C 73.25 25.42 73.82 24.64 74.11 24.25 Z" />
<path fill="#f00423" d=" M 76.31 22.56 L 76.50 22.11 L 76.95 22.29 L 76.77 22.73 L 76.31 22.56 Z" />
<path fill="#f00423" d=" M 77.48 22.00 C 79.97 22.01 82.46 22.01 84.95 22.00 L 85.12 23.15 C 83.46 23.07 81.80 23.00 80.15 22.94 C 80.04 23.60 79.84 24.93 79.74 25.60 C 78.97 24.41 78.22 23.21 77.48 22.00 Z" />
<path fill="#e5d6be" d=" M 16.20 23.20 C 16.85 23.88 16.85 23.88 16.20 23.20 Z" />
<path fill="#e5d6be" d=" M 18.19 23.21 C 18.86 23.86 18.86 23.86 18.19 23.21 Z" />
<path fill="#e5d6be" d=" M 48.20 23.19 C 48.85 23.87 48.85 23.87 48.20 23.19 Z" />
<path fill="#e5d6be" d=" M 50.20 23.19 C 50.87 23.85 50.87 23.85 50.20 23.19 Z" />
<path fill="#f00423" d=" M 85.12 23.15 C 86.78 23.76 86.79 28.35 85.03 28.81 C 84.88 26.92 84.88 25.03 85.12 23.15 Z" />
<path fill="#e5d6be" d=" M 87.08 22.87 C 88.12 23.00 89.16 23.14 90.20 23.29 C 92.45 24.38 94.81 23.66 97.04 22.95 C 97.03 23.46 96.99 24.49 96.98 25.00 C 93.98 25.00 90.99 25.00 88.00 25.00 L 88.00 25.95 C 90.07 25.99 92.15 26.05 94.23 26.16 C 94.91 26.37 96.27 26.77 96.96 26.98 C 96.98 28.32 97.00 29.66 97.02 31.00 L 96.00 31.00 C 96.00 30.53 96.00 29.59 96.00 29.12 C 94.92 29.00 93.83 28.88 92.74 28.75 C 91.20 28.32 89.63 28.00 88.06 27.68 C 88.04 28.51 87.99 30.17 87.97 31.00 L 86.07 31.00 C 87.38 28.49 86.96 25.59 87.08 22.87 Z" />
<path fill="#f00423" d=" M 73.28 24.17 L 74.11 24.25 C 73.82 24.64 73.25 25.42 72.97 25.81 C 73.05 25.40 73.20 24.58 73.28 24.17 Z" />
<path fill="#010101" d=" M 75.17 24.17 C 76.79 23.64 77.35 24.19 76.85 25.82 C 75.22 26.36 74.66 25.81 75.17 24.17 Z" />
<path fill="#010101" d=" M 81.00 24.00 C 81.75 24.00 83.25 24.00 84.00 24.00 C 84.00 25.67 84.00 27.33 84.00 29.00 C 83.25 29.00 81.75 29.00 81.00 29.00 C 81.00 27.33 81.00 25.67 81.00 24.00 Z" />
<path fill="#e5d6be" d=" M 16.18 25.20 C 16.85 25.86 16.85 25.86 16.18 25.20 Z" />
<path fill="#e5d6be" d=" M 18.20 25.18 C 18.87 25.84 18.87 25.84 18.20 25.18 Z" />
<path fill="#e5d6be" d=" M 48.18 25.21 C 48.85 25.87 48.85 25.87 48.18 25.21 Z" />
<path fill="#e5d6be" d=" M 50.20 25.19 C 50.85 25.88 50.85 25.88 50.20 25.19 Z" />
<path fill="#f00423" d=" M 82.15 27.58 C 81.28 26.35 81.51 25.63 82.85 25.43 C 83.72 26.65 83.49 27.37 82.15 27.58 Z" />
<path fill="#010101" d=" M 78.36 26.05 C 80.26 25.25 80.98 28.66 79.14 29.03 C 77.30 29.40 76.39 26.56 78.36 26.05 Z" />
<path fill="#010101" d=" M 74.18 27.15 C 75.82 26.67 76.37 27.24 75.82 28.85 C 74.17 29.34 73.63 28.77 74.18 27.15 Z" />
<path fill="#f00423" d=" M 96.96 26.98 C 97.72 27.03 99.24 27.14 100.00 27.20 L 100.00 29.19 C 98.07 27.54 97.80 31.12 100.00 30.04 L 100.00 31.00 L 97.02 31.00 C 97.00 29.66 96.98 28.32 96.96 26.98 Z" />
<path fill="#1aaaea" d=" M 13.99 28.00 C 16.33 28.01 18.67 28.00 21.01 28.00 C 21.00 28.75 20.97 30.25 20.96 31.00 L 17.85 31.00 C 17.87 30.55 17.90 29.66 17.92 29.22 L 17.20 29.38 C 17.16 29.79 17.09 30.60 17.06 31.00 L 14.02 31.00 C 14.02 30.25 14.00 28.75 13.99 28.00 Z" />
<path fill="#7a19ea" d=" M 45.97 28.00 C 48.31 28.00 50.64 28.00 52.97 28.00 C 52.95 28.75 52.91 30.25 52.89 31.00 L 49.92 31.00 C 51.37 28.94 47.63 28.95 49.10 31.00 L 46.04 31.00 C 46.03 30.25 45.99 28.75 45.97 28.00 Z" />
<path fill="#010101" d=" M 88.06 27.68 C 89.63 28.00 91.20 28.32 92.74 28.75 C 93.83 28.88 94.92 29.00 96.00 29.12 C 96.00 29.59 96.00 30.53 96.00 31.00 L 94.58 31.00 L 94.63 30.41 L 94.04 30.39 L 94.01 31.00 L 92.70 31.00 L 92.50 30.43 L 91.99 30.48 L 92.11 31.00 L 91.06 31.00 C 92.14 28.28 87.53 28.45 89.19 31.00 L 87.97 31.00 C 87.99 30.17 88.04 28.51 88.06 27.68 Z" />
<path fill="#010101" d=" M 17.20 29.38 L 17.92 29.22 C 17.90 29.66 17.87 30.55 17.85 31.00 L 17.06 31.00 C 17.09 30.60 17.16 29.79 17.20 29.38 Z" />
<path fill="#010101" d=" M 49.10 31.00 C 47.63 28.95 51.37 28.94 49.92 31.00 L 49.10 31.00 Z" />
<path fill="#e5d6be" d=" M 89.19 31.00 C 87.53 28.45 92.14 28.28 91.06 31.00 L 89.19 31.00 Z" />
<path fill="#010101" d=" M 100.00 30.04 C 97.80 31.12 98.07 27.54 100.00 29.19 L 100.00 30.04 Z" />
<path fill="#e5d6be" d=" M 91.99 30.48 L 92.50 30.43 L 92.70 31.00 L 92.11 31.00 L 91.99 30.48 Z" />
<path fill="#e5d6be" d=" M 94.04 30.39 L 94.63 30.41 L 94.58 31.00 L 94.01 31.00 L 94.04 30.39 Z" />
</svg>
