<?xml version="1.0" encoding="utf-8"?>
<!-- Generator: Adobe Illustrator 18.1.1, SVG Export Plug-In . SVG Version: 6.00 Build 0)  -->
<svg version="1.1" id="Layer_1" xmlns="http://www.w3.org/2000/svg" xmlns:xlink="http://www.w3.org/1999/xlink" x="0px" y="0px"
	 viewBox="0 24.5 360 311" enable-background="new 0 24.5 360 311" xml:space="preserve">
<path fill="#B2FFFF" d="M0.6,24.5h360v311H0.6V24.5z"/>
<path d="M64,106.1c73.4-5.8,147.2-3.6,221-1.8c27.4,2.9,39.6,29.2,49,51.1c8.6,27.4,5.8,57.6-4,84.2c-3.6,25.2-19.8,49-43.6,58.7
	c-65.2,6.5-130.7,2.9-195.8,2.9c-23.4,4.3-43.2-12.6-54.7-30.6C24,235,8.2,197.5,17.9,159.4C26.5,137.4,38.4,111.8,64,106.1z"/>
<path fill="#07F4F4" d="M71.2,113.3c52.9-5.8,106.6-2.9,159.8-3.2c23.8,1.8,50.4-2.5,71.6,11.5c22,24.8,36,60.1,25.6,93.2
	c-6.1,16.9-7.9,35.6-17.6,50.8c-11.5,14.4-26.6,29.5-47.2,27.4c-61.2,2.5-122.4,2.9-183.6,0c-16.2-4.3-29.9-17.6-37.8-32
	c-8.3-30.6-25.6-62.3-17.3-94.7C34.5,145,44.2,116.9,71.2,113.3z"/>
<path fill="#EAF70D" d="M67.2,124.4c7.6,10.8,14.4,22.3,21.2,33.8c5.4-4.7,10.1-10.1,15.1-15.1c11.5,6.8,24.1,11.5,36.7,16.6
	c0.4,10.1,0.7,19.8,1.1,29.9c23.8,0,47.9,0,71.6,0c0-9.4,0.4-19.1,0.7-28.4c14-2.2,26.6-9,37.1-18.4c4.7,5.4,9.4,10.8,14,15.8
	c4-13.3,7.2-29.2,21.2-36c1.8,29.5,2.5,59,3.2,88.6c-27.7,0-55.4,0-83.2,0v18c26.3,0,52.9,0,79.2,0c0,9,0,27,0,36c-72,0-144,0-216,0
	c0-9,0-27,0-36c26.3,0,52.9,0,79.2,0v-18c-27.7,0-55.4,0-83.2,0C65.4,182.4,65.4,153.6,67.2,124.4z"/>
<path d="M83.4,171.6c14.4,0,28.8,0,43.2,0c0,6.5,0,19.1,0,25.2c-14.4,0-28.8,0-43.2,0C83.4,190.7,83.4,178.1,83.4,171.6z"/>
<path d="M227.4,171.6c14.4,0,28.8,0,43.2,0c0,6.5,0,19.1,0,25.2c-14.4,0-28.8,0-43.2,0C227.4,190.7,227.4,178.1,227.4,171.6z"/>
<path d="M162.6,200.4c9.7,0,19.1,0,28.8,0c0,5.4,0,16.2,0,21.6c-9.7,0-19.1,0-28.8,0C162.6,216.6,162.6,205.8,162.6,200.4z"/>
<path d="M79.8,240c4.7,0,9.7,0,14.4,0c0,4.7,0,9.7,0,14.4c-4.7,0-9.7,0-14.4,0C79.8,249.7,79.8,244.7,79.8,240z"/>
<path d="M105,240c4.7,0,9.7,0,14.4,0c0,4.7,0,9.7,0,14.4c-4.7,0-9.7,0-14.4,0C105,249.7,105,244.7,105,240z"/>
<path d="M130.2,240c4.7,0,9.7,0,14.4,0c0,4.7,0,9.7,0,14.4c-4.7,0-9.7,0-14.4,0C130.2,249.7,130.2,244.7,130.2,240z"/>
<path d="M155.4,240c4.7,0,9.7,0,14.4,0c0,4.7,0,9.7,0,14.4c-4.7,0-9.7,0-14.4,0C155.4,249.7,155.4,244.7,155.4,240z"/>
<path d="M184.2,240c4.7,0,9.7,0,14.4,0c0,4.7,0,9.7,0,14.4c-4.7,0-9.7,0-14.4,0C184.2,249.7,184.2,244.7,184.2,240z"/>
<path d="M209.4,240c4.7,0,9.7,0,14.4,0c0,4.7,0,9.7,0,14.4c-4.7,0-9.7,0-14.4,0C209.4,249.7,209.4,244.7,209.4,240z"/>
<path d="M234.6,240c4.7,0,9.7,0,14.4,0c0,4.7,0,9.7,0,14.4c-4.7,0-9.7,0-14.4,0C234.6,249.7,234.6,244.7,234.6,240z"/>
<path d="M259.8,240c4.7,0,9.7,0,14.4,0c0,4.7,0,9.7,0,14.4c-4.7,0-9.7,0-14.4,0C259.8,249.7,259.8,244.7,259.8,240z"/>
</svg>
