<?xml version="1.0" encoding="utf-8"?>
<!-- Generator: Adobe Illustrator 18.1.1, SVG Export Plug-In . SVG Version: 6.00 Build 0)  -->
<svg version="1.1" id="Layer_1" xmlns="http://www.w3.org/2000/svg" xmlns:xlink="http://www.w3.org/1999/xlink" x="0px" y="0px"
	 viewBox="0 0 360 255.9" enable-background="new 0 0 360 255.9" xml:space="preserve">
<rect y="0" fill="#BEE5EE" width="360" height="255.9"/>
<polygon fill="#B22F49" points="181.9,251.2 67.7,186.7 94.1,36.4 144.9,5.9 226.6,5.9 269.8,36.4 296.1,186.7 "/>
<polygon fill="#2DB34A" points="179.8,128 282.6,107.9 273.4,55.5 179.8,84.7 91.1,55.5 81.9,107.9 "/>
<ellipse transform="matrix(0.9827 0.1854 -0.1854 0.9827 19.2472 -21.7732)" fill="#070708" cx="126" cy="92" rx="29.9" ry="10.9"/>
<ellipse transform="matrix(0.9734 -0.2292 0.2292 0.9734 -14.823 56.3851)" fill="#070708" cx="235.4" cy="92" rx="29.9" ry="10.9"/>
<polygon fill="#2DB34A" points="150.2,134.1 216,133.4 280.1,195.9 182.3,251.2 112.7,211.9 100.9,205.2 "/>
<polygon fill="#2DB34A" points="126,158.4 96.5,108.4 155.5,116.3 "/>
<polygon fill="#2DB34A" points="252.8,158.2 211.4,117.4 270.5,109.9 "/>
<ellipse cx="182.3" cy="196.2" rx="49" ry="21.9"/>
</svg>
