<?xml version="1.0" encoding="utf-8"?>
<!-- Generator: Adobe Illustrator 18.1.1, SVG Export Plug-In . SVG Version: 6.00 Build 0)  -->
<svg version="1.1" id="Layer_1" xmlns="http://www.w3.org/2000/svg" xmlns:xlink="http://www.w3.org/1999/xlink" x="0px" y="0px"
	 viewBox="0 46 360 255.9" enable-background="new 0 46 360 255.9" xml:space="preserve">
<rect y="46" fill="#BEE5EE" width="360" height="255.9"/>
<polygon fill="#3069B3" points="182.3,297.1 68.1,232.7 94.5,82.4 182.3,53 270.1,82.4 296.5,232.7 "/>
<ellipse transform="matrix(0.1854 -0.9827 0.9827 0.1854 -32.9579 236.2371)" fill="#070708" cx="126" cy="138" rx="10.9" ry="29.9"/>
<ellipse transform="matrix(-0.2292 -0.9734 0.9734 -0.2292 155.0509 398.751)" fill="#070708" cx="235.4" cy="138" rx="10.9" ry="29.9"/>
<polygon fill="#F15A29" points="271,82.4 183.1,53 95.3,82.4 183.1,122 "/>
<polygon fill="#F15A29" points="155.5,189 182.9,215.9 209,189.5 195.3,188 195.3,144.8 170.4,145.4 170.4,188 "/>
<polygon fill="#F15A29" points="106.1,253.6 128.1,173.9 81.3,157.2 68.1,232.7 "/>
<polygon fill="#F15A29" points="259.3,253.9 237.3,174.2 283.5,158.9 296.5,233 "/>
<polygon fill="#F15A29" points="209,225.8 238.2,253.6 128.1,253.9 155.5,225.8 "/>
<rect x="155.5" y="232.4" width="53.5" height="14.3"/>
<line fill="none" stroke="#FFFFFF" stroke-miterlimit="10" x1="162.8" y1="232.4" x2="163.5" y2="246.7"/>
<line fill="none" stroke="#FFFFFF" stroke-miterlimit="10" x1="172.5" y1="232.4" x2="171.8" y2="246.7"/>
<line fill="none" stroke="#FFFFFF" stroke-miterlimit="10" x1="180" y1="232.4" x2="179.6" y2="246.8"/>
<line fill="none" stroke="#FFFFFF" stroke-miterlimit="10" x1="188.2" y1="232.4" x2="187.1" y2="246.7"/>
<line fill="none" stroke="#FFFFFF" stroke-miterlimit="10" x1="196.2" y1="232.4" x2="197" y2="246.7"/>
<line fill="none" stroke="#FFFFFF" stroke-miterlimit="10" x1="204.2" y1="232.4" x2="203.1" y2="246.7"/>
</svg>
