<?xml version="1.0" encoding="utf-8"?>
<!-- Generator: Adobe Illustrator 18.1.1, SVG Export Plug-In . SVG Version: 6.00 Build 0)  -->
<svg version="1.1" id="Layer_1" xmlns="http://www.w3.org/2000/svg" xmlns:xlink="http://www.w3.org/1999/xlink" x="0px" y="0px"
	 viewBox="0 0 360 360" enable-background="new 0 0 360 360" xml:space="preserve">
<path fill="#B2FFFF" d="M0,24.5h360v311H0V24.5z"/>
<path d="M67,108.3c73.4-5.8,147.2-3.6,221-1.8c27.4,2.9,39.6,29.2,49,51.1c8.6,27.4,5.8,57.6-4,84.2c-3.6,25.2-19.8,49-43.6,58.7
	c-65.2,6.5-130.7,2.9-195.8,2.9c-23.4,4.3-43.2-12.6-54.7-30.6c-11.9-35.6-27.7-73.1-18-111.2C29.5,139.6,41.4,114.1,67,108.3z"/>
<path fill="#1AAAEA" d="M74.2,115.5c52.9-5.8,106.6-2.9,159.8-3.2c23.8,1.8,50.4-2.5,71.6,11.5c22,24.8,36,60.1,25.6,93.2
	c-6.1,16.9-7.9,35.6-17.6,50.8c-11.5,14.4-26.6,29.5-47.2,27.4c-61.2,2.5-122.4,2.9-183.6,0c-16.2-4.3-29.9-17.6-37.8-32
	c-8.3-30.6-25.6-62.3-17.3-94.7C37.5,147.2,47.2,119.1,74.2,115.5z"/>
<path fill="#F40FF4" d="M70.2,126.7c7.6,10.8,14.4,22.3,21.2,33.8c5.4-4.7,10.1-10.1,15.1-15.1c11.5,6.8,24.1,11.5,36.7,16.6
	c0.4,10.1,0.7,19.8,1.1,29.9c23.8,0,47.9,0,71.6,0c0-9.4,0.4-19.1,0.7-28.4c14-2.2,26.6-9,37.1-18.4c4.7,5.4,9.4,10.8,14,15.8
	c4-13.3,7.2-29.2,21.2-36c1.8,29.5,2.5,59,3.2,88.6c-27.7,0-55.4,0-83.2,0v18c26.3,0,52.9,0,79.2,0c0,9,0,27,0,36c-72,0-144,0-216,0
	c0-9,0-27,0-36c26.3,0,52.9,0,79.2,0v-18c-27.7,0-55.4,0-83.2,0C68.4,184.6,68.4,155.8,70.2,126.7z"/>
<path d="M86.4,173.8c14.4,0,28.8,0,43.2,0c0,6.5,0,19.1,0,25.2c-14.4,0-28.8,0-43.2,0C86.4,192.9,86.4,180.3,86.4,173.8z"/>
<path d="M230.4,173.8c14.4,0,28.8,0,43.2,0c0,6.5,0,19.1,0,25.2c-14.4,0-28.8,0-43.2,0C230.4,192.9,230.4,180.3,230.4,173.8z"/>
<path d="M165.6,202.6c9.7,0,19.1,0,28.8,0c0,5.4,0,16.2,0,21.6c-9.7,0-19.1,0-28.8,0C165.6,218.8,165.6,208,165.6,202.6z"/>
<path d="M82.8,242.2c4.7,0,9.7,0,14.4,0c0,4.7,0,9.7,0,14.4c-4.7,0-9.7,0-14.4,0C82.8,251.9,82.8,246.9,82.8,242.2z"/>
<path d="M108,242.2c4.7,0,9.7,0,14.4,0c0,4.7,0,9.7,0,14.4c-4.7,0-9.7,0-14.4,0C108,251.9,108,246.9,108,242.2z"/>
<path d="M133.2,242.2c4.7,0,9.7,0,14.4,0c0,4.7,0,9.7,0,14.4c-4.7,0-9.7,0-14.4,0C133.2,251.9,133.2,246.9,133.2,242.2z"/>
<path d="M158.4,242.2c4.7,0,9.7,0,14.4,0c0,4.7,0,9.7,0,14.4c-4.7,0-9.7,0-14.4,0C158.4,251.9,158.4,246.9,158.4,242.2z"/>
<path d="M187.2,242.2c4.7,0,9.7,0,14.4,0c0,4.7,0,9.7,0,14.4c-4.7,0-9.7,0-14.4,0C187.2,251.9,187.2,246.9,187.2,242.2z"/>
<path d="M212.4,242.2c4.7,0,9.7,0,14.4,0c0,4.7,0,9.7,0,14.4c-4.7,0-9.7,0-14.4,0C212.4,251.9,212.4,246.9,212.4,242.2z"/>
<path d="M237.6,242.2c4.7,0,9.7,0,14.4,0c0,4.7,0,9.7,0,14.4c-4.7,0-9.7,0-14.4,0C237.6,251.9,237.6,246.9,237.6,242.2z"/>
<path d="M262.8,242.2c4.7,0,9.7,0,14.4,0c0,4.7,0,9.7,0,14.4c-4.7,0-9.7,0-14.4,0C262.8,251.9,262.8,246.9,262.8,242.2z"/>
</svg>
